<?xml version="1.0" encoding="utf-8" standalone="no"?>
<!DOCTYPE svg PUBLIC "-//W3C//DTD SVG 1.1//EN"
  "http://www.w3.org/Graphics/SVG/1.1/DTD/svg11.dtd">
<svg xmlns:xlink="http://www.w3.org/1999/xlink" width="259.2pt" height="187.2pt" viewBox="0 0 259.2 187.2" xmlns="http://www.w3.org/2000/svg" version="1.1">
 <metadata>
  <rdf:RDF xmlns:dc="http://purl.org/dc/elements/1.1/" xmlns:cc="http://creativecommons.org/ns#" xmlns:rdf="http://www.w3.org/1999/02/22-rdf-syntax-ns#">
   <cc:Work>
    <dc:type rdf:resource="http://purl.org/dc/dcmitype/StillImage"/>
    <dc:date>2025-11-25T12:56:35.219601</dc:date>
    <dc:format>image/svg+xml</dc:format>
    <dc:creator>
     <cc:Agent>
      <dc:title>Matplotlib v3.8.2, https://matplotlib.org/</dc:title>
     </cc:Agent>
    </dc:creator>
   </cc:Work>
  </rdf:RDF>
 </metadata>
 <defs>
  <style type="text/css">*{stroke-linejoin: round; stroke-linecap: butt}</style>
 </defs>
 <g id="figure_1">
  <g id="patch_1">
   <path d="M 0 187.2 
L 259.2 187.2 
L 259.2 0 
L 0 0 
z
" style="fill: #ffffff"/>
  </g>
  <g id="axes_1">
   <g id="patch_2">
    <path d="M 51.84 149.76 
L 246.24 149.76 
L 246.24 18.72 
L 51.84 18.72 
z
" style="fill: #ffffff"/>
   </g>
   <g id="line2d_1">
    <path d="M 59.652213 133.593268 
L 67.41916 136.2141 
L 72.079328 137.3969 
L 75.186107 138.019045 
L 79.06958 138.601289 
L 82.953053 138.959388 
L 86.059832 139.013934 
L 89.166611 139.046235 
L 89.943305 139.070215 
L 90.72 139.083909 
L 90.72 139.083909 
L 91.496695 139.070215 
L 92.273389 139.046235 
L 95.380168 139.013934 
L 98.486947 138.959388 
L 102.37042 138.601289 
L 106.253893 138.019045 
L 109.360672 137.3969 
L 114.02084 136.2141 
L 121.787787 133.593268 
" clip-path="url(#p21fd17f5a5)" style="fill: none; stroke: #0000ff; stroke-width: 1.5; stroke-linecap: square"/>
   </g>
   <g id="line2d_2">
    <path d="M 59.652213 133.298985 
L 67.41916 136.069825 
L 72.079328 137.311003 
L 75.186107 137.961289 
L 79.06958 138.569675 
L 82.953053 138.945695 
L 86.059832 139.079159 
L 89.166611 139.06979 
L 89.943305 139.04617 
L 90.72 139.013934 
L 90.72 139.013934 
L 91.496695 139.04617 
L 92.273389 139.06979 
L 95.380168 139.079159 
L 98.486947 138.945695 
L 102.37042 138.569675 
L 106.253893 137.961289 
L 109.360672 137.311003 
L 114.02084 136.069825 
L 121.787787 133.298985 
" clip-path="url(#p21fd17f5a5)" style="fill: none; stroke: #0000ff; stroke-width: 1.5; stroke-linecap: square"/>
   </g>
   <g id="line2d_3">
    <path d="M 59.652213 62.703412 
L 67.41916 64.161232 
L 72.079328 64.451591 
L 75.186107 64.392387 
L 79.06958 64.011113 
L 82.953053 63.279438 
L 86.059832 62.469951 
L 89.166611 61.578539 
L 89.943305 61.408187 
L 90.72 61.330113 
L 90.72 61.330113 
L 91.496695 61.408187 
L 92.273389 61.578539 
L 95.380168 62.469951 
L 98.486947 63.279438 
L 102.37042 64.011113 
L 106.253893 64.392387 
L 109.360672 64.451591 
L 114.02084 64.161232 
L 121.787787 62.703412 
" clip-path="url(#p21fd17f5a5)" style="fill: none; stroke: #0000ff; stroke-width: 1.5; stroke-linecap: square"/>
   </g>
   <g id="line2d_4">
    <path d="M 59.652213 61.879197 
L 67.41916 63.57399 
L 72.079328 63.930549 
L 75.186107 63.902376 
L 79.06958 63.557321 
L 82.953053 62.874446 
L 86.059832 62.14547 
L 89.166611 61.47064 
L 89.943305 61.37409 
L 90.72 61.330113 
L 90.72 61.330113 
L 91.496695 61.37409 
L 92.273389 61.47064 
L 95.380168 62.14547 
L 98.486947 62.874446 
L 102.37042 63.557321 
L 106.253893 63.902376 
L 109.360672 63.930549 
L 114.02084 63.57399 
L 121.787787 61.879197 
" clip-path="url(#p21fd17f5a5)" style="fill: none; stroke: #0000ff; stroke-width: 1.5; stroke-linecap: square"/>
   </g>
   <g id="line2d_5">
    <path d="M 59.652213 56.889796 
L 67.41916 58.090175 
L 72.079328 58.506909 
L 75.186107 58.674692 
L 79.06958 58.846433 
L 82.953053 59.170915 
L 86.059832 59.678432 
L 89.166611 60.315182 
L 89.943305 60.422713 
L 90.72 60.436184 
L 90.72 60.436184 
L 91.496695 60.422713 
L 92.273389 60.315182 
L 95.380168 59.678432 
L 98.486947 59.170915 
L 102.37042 58.846433 
L 106.253893 58.674692 
L 109.360672 58.506909 
L 114.02084 58.090175 
L 121.787787 56.889796 
" clip-path="url(#p21fd17f5a5)" style="fill: none; stroke: #0000ff; stroke-width: 1.5; stroke-linecap: square"/>
   </g>
   <g id="line2d_6">
    <path d="M 59.652213 56.238213 
L 67.41916 57.290255 
L 72.079328 57.659001 
L 75.186107 57.831476 
L 79.06958 58.038781 
L 82.953053 58.371151 
L 86.059832 58.794358 
L 89.166611 59.19652 
L 89.943305 59.22755 
L 90.72 59.205116 
L 90.72 59.205116 
L 91.496695 59.22755 
L 92.273389 59.19652 
L 95.380168 58.794358 
L 98.486947 58.371151 
L 102.37042 58.038781 
L 106.253893 57.831476 
L 109.360672 57.659001 
L 114.02084 57.290255 
L 121.787787 56.238213 
" clip-path="url(#p21fd17f5a5)" style="fill: none; stroke: #0000ff; stroke-width: 1.5; stroke-linecap: square"/>
   </g>
   <g id="line2d_7">
    <path d="M 59.652213 21.560063 
L 67.41916 27.68746 
L 72.079328 30.586163 
L 75.186107 32.349012 
L 79.06958 34.276741 
L 82.953053 35.641457 
L 86.059832 36.197755 
L 89.166611 36.305175 
L 89.943305 36.271858 
L 90.72 36.215937 
L 90.72 36.215937 
L 91.496695 36.271858 
L 92.273389 36.305175 
L 95.380168 36.197755 
L 98.486947 35.641457 
L 102.37042 34.276741 
L 106.253893 32.349012 
L 109.360672 30.586163 
L 114.02084 27.68746 
L 121.787787 21.560063 
" clip-path="url(#p21fd17f5a5)" style="fill: none; stroke: #0000ff; stroke-width: 1.5; stroke-linecap: square"/>
   </g>
   <g id="line2d_8">
    <path d="M 59.652213 20.879146 
L 67.41916 27.237764 
L 72.079328 30.370242 
L 75.186107 32.122509 
L 79.06958 33.999526 
L 82.953053 35.464422 
L 86.059832 36.142227 
L 89.166611 36.302423 
L 89.943305 36.271465 
L 90.72 36.215937 
L 90.72 36.215937 
L 91.496695 36.271465 
L 92.273389 36.302423 
L 95.380168 36.142227 
L 98.486947 35.464422 
L 102.37042 33.999526 
L 106.253893 32.122509 
L 109.360672 30.370242 
L 114.02084 27.237764 
L 121.787787 20.879146 
" clip-path="url(#p21fd17f5a5)" style="fill: none; stroke: #0000ff; stroke-width: 1.5; stroke-linecap: square"/>
   </g>
   <g id="line2d_9">
    <path d="M 59.652213 15.611043 
L 67.41916 19.284422 
L 72.079328 19.852906 
L 75.186107 19.666567 
L 79.06958 18.888583 
L 82.953053 17.643572 
L 86.059832 16.639314 
L 89.166611 15.910666 
L 89.943305 15.808324 
L 90.72 15.727079 
L 90.72 15.727079 
L 91.496695 15.808324 
L 92.273389 15.910666 
L 95.380168 16.639314 
L 98.486947 17.643572 
L 102.37042 18.888583 
L 106.253893 19.666567 
L 109.360672 19.852906 
L 114.02084 19.284422 
L 121.787787 15.611043 
" clip-path="url(#p21fd17f5a5)" style="fill: none; stroke: #0000ff; stroke-width: 1.5; stroke-linecap: square"/>
   </g>
   <g id="line2d_10">
    <path d="M 59.652213 11.955453 
L 67.41916 16.867062 
L 72.079328 18.321344 
L 75.186107 18.68973 
L 79.06958 18.500541 
L 82.953053 17.607995 
L 86.059832 16.543884 
L 89.166611 15.903525 
L 89.943305 15.806981 
L 90.72 15.727079 
L 90.72 15.727079 
L 91.496695 15.806981 
L 92.273389 15.903525 
L 95.380168 16.543884 
L 98.486947 17.607995 
L 102.37042 18.500541 
L 106.253893 18.68973 
L 109.360672 18.321344 
L 114.02084 16.867062 
L 121.787787 11.955453 
" clip-path="url(#p21fd17f5a5)" style="fill: none; stroke: #0000ff; stroke-width: 1.5; stroke-linecap: square"/>
   </g>
   <g id="line2d_11">
    <path d="M 59.652213 4.337607 
L 67.41916 2.732203 
L 72.079328 7.075655 
L 75.186107 9.469723 
L 79.06958 12.088557 
L 82.953053 13.810848 
L 86.059832 14.25645 
L 89.166611 13.857237 
L 89.943305 13.738875 
L 90.72 13.65075 
L 90.72 13.65075 
L 91.496695 13.738875 
L 92.273389 13.857237 
L 95.380168 14.25645 
L 98.486947 13.810848 
L 102.37042 12.088557 
L 106.253893 9.469723 
L 109.360672 7.075655 
L 114.02084 2.732203 
L 121.787787 4.337607 
" clip-path="url(#p21fd17f5a5)" style="fill: none; stroke: #0000ff; stroke-width: 1.5; stroke-linecap: square"/>
   </g>
   <g id="line2d_12">
    <path d="M 59.652213 -0.072577 
L 67.41916 0.889191 
L 72.079328 6.227957 
L 75.186107 9.211344 
L 79.06958 11.78651 
L 82.953053 13.405378 
L 86.059832 14.016647 
L 89.166611 13.843084 
L 89.943305 13.736025 
L 90.72 13.648162 
L 90.72 13.648162 
L 91.496695 13.736025 
L 92.273389 13.843084 
L 95.380168 14.016647 
L 98.486947 13.405378 
L 102.37042 11.78651 
L 106.253893 9.211344 
L 109.360672 6.227957 
L 114.02084 0.889191 
L 121.787787 -0.072577 
" clip-path="url(#p21fd17f5a5)" style="fill: none; stroke: #0000ff; stroke-width: 1.5; stroke-linecap: square"/>
   </g>
   <g id="line2d_13">
    <path d="M 78.235073 -1 
L 79.06958 -0.106812 
L 82.953053 3.551039 
L 86.059832 5.946778 
L 89.166611 7.442272 
L 89.943305 7.572231 
L 90.72 7.568987 
L 90.72 7.568987 
L 91.496695 7.572231 
L 92.273389 7.442272 
L 95.380168 5.946778 
L 98.486947 3.551039 
L 102.37042 -0.106812 
L 103.204927 -1 
" clip-path="url(#p21fd17f5a5)" style="fill: none; stroke: #0000ff; stroke-width: 1.5; stroke-linecap: square"/>
   </g>
   <g id="line2d_14">
    <path d="M 79.471036 -1 
L 82.953053 2.947993 
L 86.059832 5.750447 
L 89.166611 7.431461 
L 89.943305 7.570789 
L 90.72 7.568987 
L 90.72 7.568987 
L 91.496695 7.570789 
L 92.273389 7.431461 
L 95.380168 5.750447 
L 98.486947 2.947993 
L 101.968964 -1 
" clip-path="url(#p21fd17f5a5)" style="fill: none; stroke: #0000ff; stroke-width: 1.5; stroke-linecap: square"/>
   </g>
   <g id="line2d_15">
    <path clip-path="url(#p21fd17f5a5)" style="fill: none; stroke: #0000ff; stroke-width: 1.5; stroke-linecap: square"/>
   </g>
   <g id="line2d_16">
    <path clip-path="url(#p21fd17f5a5)" style="fill: none; stroke: #0000ff; stroke-width: 1.5; stroke-linecap: square"/>
   </g>
   <g id="line2d_17">
    <path clip-path="url(#p21fd17f5a5)" style="fill: none; stroke: #0000ff; stroke-width: 1.5; stroke-linecap: square"/>
   </g>
   <g id="line2d_18">
    <path clip-path="url(#p21fd17f5a5)" style="fill: none; stroke: #0000ff; stroke-width: 1.5; stroke-linecap: square"/>
   </g>
   <g id="line2d_19">
    <path clip-path="url(#p21fd17f5a5)" style="fill: none; stroke: #0000ff; stroke-width: 1.5; stroke-linecap: square"/>
   </g>
   <g id="line2d_20">
    <path clip-path="url(#p21fd17f5a5)" style="fill: none; stroke: #0000ff; stroke-width: 1.5; stroke-linecap: square"/>
   </g>
   <g id="matplotlib.axis_1">
    <g id="xtick_1">
     <g id="line2d_21">
      <defs>
       <path id="md8bc38899d" d="M 0 0 
L 0 3.5 
" style="stroke: #000000; stroke-width: 0.8"/>
      </defs>
      <g>
       <use xlink:href="#md8bc38899d" x="59.616" y="149.76" style="stroke: #000000; stroke-width: 0.8"/>
      </g>
     </g>
     <g id="text_1">
      <!-- -0.08 -->
      <g transform="translate(46.679281 164.358438) scale(0.1 -0.1)">
       <defs>
        <path id="DejaVuSans-2d" d="M 313 2009 
L 1997 2009 
L 1997 1497 
L 313 1497 
L 313 2009 
z
" transform="scale(0.015625)"/>
        <path id="DejaVuSans-30" d="M 2034 4250 
Q 1547 4250 1301 3770 
Q 1056 3291 1056 2328 
Q 1056 1369 1301 889 
Q 1547 409 2034 409 
Q 2525 409 2770 889 
Q 3016 1369 3016 2328 
Q 3016 3291 2770 3770 
Q 2525 4250 2034 4250 
z
M 2034 4750 
Q 2819 4750 3233 4129 
Q 3647 3509 3647 2328 
Q 3647 1150 3233 529 
Q 2819 -91 2034 -91 
Q 1250 -91 836 529 
Q 422 1150 422 2328 
Q 422 3509 836 4129 
Q 1250 4750 2034 4750 
z
" transform="scale(0.015625)"/>
        <path id="DejaVuSans-2e" d="M 684 794 
L 1344 794 
L 1344 0 
L 684 0 
L 684 794 
z
" transform="scale(0.015625)"/>
        <path id="DejaVuSans-38" d="M 2034 2216 
Q 1584 2216 1326 1975 
Q 1069 1734 1069 1313 
Q 1069 891 1326 650 
Q 1584 409 2034 409 
Q 2484 409 2743 651 
Q 3003 894 3003 1313 
Q 3003 1734 2745 1975 
Q 2488 2216 2034 2216 
z
M 1403 2484 
Q 997 2584 770 2862 
Q 544 3141 544 3541 
Q 544 4100 942 4425 
Q 1341 4750 2034 4750 
Q 2731 4750 3128 4425 
Q 3525 4100 3525 3541 
Q 3525 3141 3298 2862 
Q 3072 2584 2669 2484 
Q 3125 2378 3379 2068 
Q 3634 1759 3634 1313 
Q 3634 634 3220 271 
Q 2806 -91 2034 -91 
Q 1263 -91 848 271 
Q 434 634 434 1313 
Q 434 1759 690 2068 
Q 947 2378 1403 2484 
z
M 1172 3481 
Q 1172 3119 1398 2916 
Q 1625 2713 2034 2713 
Q 2441 2713 2670 2916 
Q 2900 3119 2900 3481 
Q 2900 3844 2670 4047 
Q 2441 4250 2034 4250 
Q 1625 4250 1398 4047 
Q 1172 3844 1172 3481 
z
" transform="scale(0.015625)"/>
       </defs>
       <use xlink:href="#DejaVuSans-2d"/>
       <use xlink:href="#DejaVuSans-30" x="36.083984"/>
       <use xlink:href="#DejaVuSans-2e" x="99.707031"/>
       <use xlink:href="#DejaVuSans-30" x="131.494141"/>
       <use xlink:href="#DejaVuSans-38" x="195.117188"/>
      </g>
     </g>
    </g>
    <g id="xtick_2">
     <g id="line2d_22">
      <g>
       <use xlink:href="#md8bc38899d" x="90.72" y="149.76" style="stroke: #000000; stroke-width: 0.8"/>
      </g>
     </g>
     <g id="text_2">
      <!-- 0 -->
      <g transform="translate(87.53875 164.358438) scale(0.1 -0.1)">
       <use xlink:href="#DejaVuSans-30"/>
      </g>
     </g>
    </g>
    <g id="xtick_3">
     <g id="line2d_23">
      <g>
       <use xlink:href="#md8bc38899d" x="121.824" y="149.76" style="stroke: #000000; stroke-width: 0.8"/>
      </g>
     </g>
     <g id="text_3">
      <!-- 0.08 -->
      <g transform="translate(110.691187 164.358438) scale(0.1 -0.1)">
       <use xlink:href="#DejaVuSans-30"/>
       <use xlink:href="#DejaVuSans-2e" x="63.623047"/>
       <use xlink:href="#DejaVuSans-30" x="95.410156"/>
       <use xlink:href="#DejaVuSans-38" x="159.033203"/>
      </g>
     </g>
    </g>
    <g id="xtick_4">
     <g id="line2d_24">
      <g>
       <use xlink:href="#md8bc38899d" x="156.816" y="149.76" style="stroke: #000000; stroke-width: 0.8"/>
      </g>
     </g>
     <g id="text_4">
      <!-- K-0.08 -->
      <g transform="translate(141.125375 164.358438) scale(0.1 -0.1)">
       <defs>
        <path id="DejaVuSans-4b" d="M 628 4666 
L 1259 4666 
L 1259 2694 
L 3353 4666 
L 4166 4666 
L 1850 2491 
L 4331 0 
L 3500 0 
L 1259 2247 
L 1259 0 
L 628 0 
L 628 4666 
z
" transform="scale(0.015625)"/>
       </defs>
       <use xlink:href="#DejaVuSans-4b"/>
       <use xlink:href="#DejaVuSans-2d" x="55.076172"/>
       <use xlink:href="#DejaVuSans-30" x="91.160156"/>
       <use xlink:href="#DejaVuSans-2e" x="154.783203"/>
       <use xlink:href="#DejaVuSans-30" x="186.570312"/>
       <use xlink:href="#DejaVuSans-38" x="250.193359"/>
      </g>
     </g>
    </g>
    <g id="xtick_5">
     <g id="line2d_25">
      <g>
       <use xlink:href="#md8bc38899d" x="187.92" y="149.76" style="stroke: #000000; stroke-width: 0.8"/>
      </g>
     </g>
     <g id="text_5">
      <!-- K -->
      <g transform="translate(184.641094 164.358438) scale(0.1 -0.1)">
       <use xlink:href="#DejaVuSans-4b"/>
      </g>
     </g>
    </g>
    <g id="xtick_6">
     <g id="line2d_26">
      <g>
       <use xlink:href="#md8bc38899d" x="219.024" y="149.76" style="stroke: #000000; stroke-width: 0.8"/>
      </g>
     </g>
     <g id="text_6">
      <!-- K+0.08 -->
      <g transform="translate(200.422438 164.358438) scale(0.1 -0.1)">
       <defs>
        <path id="DejaVuSans-2b" d="M 2944 4013 
L 2944 2272 
L 4684 2272 
L 4684 1741 
L 2944 1741 
L 2944 0 
L 2419 0 
L 2419 1741 
L 678 1741 
L 678 2272 
L 2419 2272 
L 2419 4013 
L 2944 4013 
z
" transform="scale(0.015625)"/>
       </defs>
       <use xlink:href="#DejaVuSans-4b"/>
       <use xlink:href="#DejaVuSans-2b" x="65.576172"/>
       <use xlink:href="#DejaVuSans-30" x="149.365234"/>
       <use xlink:href="#DejaVuSans-2e" x="212.988281"/>
       <use xlink:href="#DejaVuSans-30" x="244.775391"/>
       <use xlink:href="#DejaVuSans-38" x="308.398438"/>
      </g>
     </g>
    </g>
    <g id="text_7">
     <!-- Exciton Center of Mass Momentum ($\AA^{-1}$) -->
     <g transform="translate(46.79 179.058437) scale(0.1 -0.1)">
      <defs>
       <path id="DejaVuSans-45" d="M 628 4666 
L 3578 4666 
L 3578 4134 
L 1259 4134 
L 1259 2753 
L 3481 2753 
L 3481 2222 
L 1259 2222 
L 1259 531 
L 3634 531 
L 3634 0 
L 628 0 
L 628 4666 
z
" transform="scale(0.015625)"/>
       <path id="DejaVuSans-78" d="M 3513 3500 
L 2247 1797 
L 3578 0 
L 2900 0 
L 1881 1375 
L 863 0 
L 184 0 
L 1544 1831 
L 300 3500 
L 978 3500 
L 1906 2253 
L 2834 3500 
L 3513 3500 
z
" transform="scale(0.015625)"/>
       <path id="DejaVuSans-63" d="M 3122 3366 
L 3122 2828 
Q 2878 2963 2633 3030 
Q 2388 3097 2138 3097 
Q 1578 3097 1268 2742 
Q 959 2388 959 1747 
Q 959 1106 1268 751 
Q 1578 397 2138 397 
Q 2388 397 2633 464 
Q 2878 531 3122 666 
L 3122 134 
Q 2881 22 2623 -34 
Q 2366 -91 2075 -91 
Q 1284 -91 818 406 
Q 353 903 353 1747 
Q 353 2603 823 3093 
Q 1294 3584 2113 3584 
Q 2378 3584 2631 3529 
Q 2884 3475 3122 3366 
z
" transform="scale(0.015625)"/>
       <path id="DejaVuSans-69" d="M 603 3500 
L 1178 3500 
L 1178 0 
L 603 0 
L 603 3500 
z
M 603 4863 
L 1178 4863 
L 1178 4134 
L 603 4134 
L 603 4863 
z
" transform="scale(0.015625)"/>
       <path id="DejaVuSans-74" d="M 1172 4494 
L 1172 3500 
L 2356 3500 
L 2356 3053 
L 1172 3053 
L 1172 1153 
Q 1172 725 1289 603 
Q 1406 481 1766 481 
L 2356 481 
L 2356 0 
L 1766 0 
Q 1100 0 847 248 
Q 594 497 594 1153 
L 594 3053 
L 172 3053 
L 172 3500 
L 594 3500 
L 594 4494 
L 1172 4494 
z
" transform="scale(0.015625)"/>
       <path id="DejaVuSans-6f" d="M 1959 3097 
Q 1497 3097 1228 2736 
Q 959 2375 959 1747 
Q 959 1119 1226 758 
Q 1494 397 1959 397 
Q 2419 397 2687 759 
Q 2956 1122 2956 1747 
Q 2956 2369 2687 2733 
Q 2419 3097 1959 3097 
z
M 1959 3584 
Q 2709 3584 3137 3096 
Q 3566 2609 3566 1747 
Q 3566 888 3137 398 
Q 2709 -91 1959 -91 
Q 1206 -91 779 398 
Q 353 888 353 1747 
Q 353 2609 779 3096 
Q 1206 3584 1959 3584 
z
" transform="scale(0.015625)"/>
       <path id="DejaVuSans-6e" d="M 3513 2113 
L 3513 0 
L 2938 0 
L 2938 2094 
Q 2938 2591 2744 2837 
Q 2550 3084 2163 3084 
Q 1697 3084 1428 2787 
Q 1159 2491 1159 1978 
L 1159 0 
L 581 0 
L 581 3500 
L 1159 3500 
L 1159 2956 
Q 1366 3272 1645 3428 
Q 1925 3584 2291 3584 
Q 2894 3584 3203 3211 
Q 3513 2838 3513 2113 
z
" transform="scale(0.015625)"/>
       <path id="DejaVuSans-20" transform="scale(0.015625)"/>
       <path id="DejaVuSans-43" d="M 4122 4306 
L 4122 3641 
Q 3803 3938 3442 4084 
Q 3081 4231 2675 4231 
Q 1875 4231 1450 3742 
Q 1025 3253 1025 2328 
Q 1025 1406 1450 917 
Q 1875 428 2675 428 
Q 3081 428 3442 575 
Q 3803 722 4122 1019 
L 4122 359 
Q 3791 134 3420 21 
Q 3050 -91 2638 -91 
Q 1578 -91 968 557 
Q 359 1206 359 2328 
Q 359 3453 968 4101 
Q 1578 4750 2638 4750 
Q 3056 4750 3426 4639 
Q 3797 4528 4122 4306 
z
" transform="scale(0.015625)"/>
       <path id="DejaVuSans-65" d="M 3597 1894 
L 3597 1613 
L 953 1613 
Q 991 1019 1311 708 
Q 1631 397 2203 397 
Q 2534 397 2845 478 
Q 3156 559 3463 722 
L 3463 178 
Q 3153 47 2828 -22 
Q 2503 -91 2169 -91 
Q 1331 -91 842 396 
Q 353 884 353 1716 
Q 353 2575 817 3079 
Q 1281 3584 2069 3584 
Q 2775 3584 3186 3129 
Q 3597 2675 3597 1894 
z
M 3022 2063 
Q 3016 2534 2758 2815 
Q 2500 3097 2075 3097 
Q 1594 3097 1305 2825 
Q 1016 2553 972 2059 
L 3022 2063 
z
" transform="scale(0.015625)"/>
       <path id="DejaVuSans-72" d="M 2631 2963 
Q 2534 3019 2420 3045 
Q 2306 3072 2169 3072 
Q 1681 3072 1420 2755 
Q 1159 2438 1159 1844 
L 1159 0 
L 581 0 
L 581 3500 
L 1159 3500 
L 1159 2956 
Q 1341 3275 1631 3429 
Q 1922 3584 2338 3584 
Q 2397 3584 2469 3576 
Q 2541 3569 2628 3553 
L 2631 2963 
z
" transform="scale(0.015625)"/>
       <path id="DejaVuSans-66" d="M 2375 4863 
L 2375 4384 
L 1825 4384 
Q 1516 4384 1395 4259 
Q 1275 4134 1275 3809 
L 1275 3500 
L 2222 3500 
L 2222 3053 
L 1275 3053 
L 1275 0 
L 697 0 
L 697 3053 
L 147 3053 
L 147 3500 
L 697 3500 
L 697 3744 
Q 697 4328 969 4595 
Q 1241 4863 1831 4863 
L 2375 4863 
z
" transform="scale(0.015625)"/>
       <path id="DejaVuSans-4d" d="M 628 4666 
L 1569 4666 
L 2759 1491 
L 3956 4666 
L 4897 4666 
L 4897 0 
L 4281 0 
L 4281 4097 
L 3078 897 
L 2444 897 
L 1241 4097 
L 1241 0 
L 628 0 
L 628 4666 
z
" transform="scale(0.015625)"/>
       <path id="DejaVuSans-61" d="M 2194 1759 
Q 1497 1759 1228 1600 
Q 959 1441 959 1056 
Q 959 750 1161 570 
Q 1363 391 1709 391 
Q 2188 391 2477 730 
Q 2766 1069 2766 1631 
L 2766 1759 
L 2194 1759 
z
M 3341 1997 
L 3341 0 
L 2766 0 
L 2766 531 
Q 2569 213 2275 61 
Q 1981 -91 1556 -91 
Q 1019 -91 701 211 
Q 384 513 384 1019 
Q 384 1609 779 1909 
Q 1175 2209 1959 2209 
L 2766 2209 
L 2766 2266 
Q 2766 2663 2505 2880 
Q 2244 3097 1772 3097 
Q 1472 3097 1187 3025 
Q 903 2953 641 2809 
L 641 3341 
Q 956 3463 1253 3523 
Q 1550 3584 1831 3584 
Q 2591 3584 2966 3190 
Q 3341 2797 3341 1997 
z
" transform="scale(0.015625)"/>
       <path id="DejaVuSans-73" d="M 2834 3397 
L 2834 2853 
Q 2591 2978 2328 3040 
Q 2066 3103 1784 3103 
Q 1356 3103 1142 2972 
Q 928 2841 928 2578 
Q 928 2378 1081 2264 
Q 1234 2150 1697 2047 
L 1894 2003 
Q 2506 1872 2764 1633 
Q 3022 1394 3022 966 
Q 3022 478 2636 193 
Q 2250 -91 1575 -91 
Q 1294 -91 989 -36 
Q 684 19 347 128 
L 347 722 
Q 666 556 975 473 
Q 1284 391 1588 391 
Q 1994 391 2212 530 
Q 2431 669 2431 922 
Q 2431 1156 2273 1281 
Q 2116 1406 1581 1522 
L 1381 1569 
Q 847 1681 609 1914 
Q 372 2147 372 2553 
Q 372 3047 722 3315 
Q 1072 3584 1716 3584 
Q 2034 3584 2315 3537 
Q 2597 3491 2834 3397 
z
" transform="scale(0.015625)"/>
       <path id="DejaVuSans-6d" d="M 3328 2828 
Q 3544 3216 3844 3400 
Q 4144 3584 4550 3584 
Q 5097 3584 5394 3201 
Q 5691 2819 5691 2113 
L 5691 0 
L 5113 0 
L 5113 2094 
Q 5113 2597 4934 2840 
Q 4756 3084 4391 3084 
Q 3944 3084 3684 2787 
Q 3425 2491 3425 1978 
L 3425 0 
L 2847 0 
L 2847 2094 
Q 2847 2600 2669 2842 
Q 2491 3084 2119 3084 
Q 1678 3084 1418 2786 
Q 1159 2488 1159 1978 
L 1159 0 
L 581 0 
L 581 3500 
L 1159 3500 
L 1159 2956 
Q 1356 3278 1631 3431 
Q 1906 3584 2284 3584 
Q 2666 3584 2933 3390 
Q 3200 3197 3328 2828 
z
" transform="scale(0.015625)"/>
       <path id="DejaVuSans-75" d="M 544 1381 
L 544 3500 
L 1119 3500 
L 1119 1403 
Q 1119 906 1312 657 
Q 1506 409 1894 409 
Q 2359 409 2629 706 
Q 2900 1003 2900 1516 
L 2900 3500 
L 3475 3500 
L 3475 0 
L 2900 0 
L 2900 538 
Q 2691 219 2414 64 
Q 2138 -91 1772 -91 
Q 1169 -91 856 284 
Q 544 659 544 1381 
z
M 1991 3584 
L 1991 3584 
z
" transform="scale(0.015625)"/>
       <path id="DejaVuSans-28" d="M 1984 4856 
Q 1566 4138 1362 3434 
Q 1159 2731 1159 2009 
Q 1159 1288 1364 580 
Q 1569 -128 1984 -844 
L 1484 -844 
Q 1016 -109 783 600 
Q 550 1309 550 2009 
Q 550 2706 781 3412 
Q 1013 4119 1484 4856 
L 1984 4856 
z
" transform="scale(0.015625)"/>
       <path id="DejaVuSans-Oblique-c5" d="M 3188 5081 
Q 3188 5278 3048 5417 
Q 2909 5556 2713 5556 
Q 2513 5556 2377 5420 
Q 2241 5284 2241 5081 
Q 2241 4884 2377 4746 
Q 2513 4609 2713 4609 
Q 2909 4609 3048 4746 
Q 3188 4884 3188 5081 
z
M 2203 4397 
Q 2034 4513 1945 4689 
Q 1856 4866 1856 5081 
Q 1856 5438 2106 5689 
Q 2356 5941 2713 5941 
Q 3069 5941 3320 5689 
Q 3572 5438 3572 5081 
Q 3572 4834 3458 4643 
Q 3344 4453 3128 4341 
L 3938 0 
L 3278 0 
L 3084 1197 
L 984 1197 
L 325 0 
L -341 0 
L 2203 4397 
z
M 2584 4044 
L 1275 1722 
L 2988 1722 
L 2584 4044 
z
" transform="scale(0.015625)"/>
       <path id="DejaVuSans-2212" d="M 678 2272 
L 4684 2272 
L 4684 1741 
L 678 1741 
L 678 2272 
z
" transform="scale(0.015625)"/>
       <path id="DejaVuSans-31" d="M 794 531 
L 1825 531 
L 1825 4091 
L 703 3866 
L 703 4441 
L 1819 4666 
L 2450 4666 
L 2450 531 
L 3481 531 
L 3481 0 
L 794 0 
L 794 531 
z
" transform="scale(0.015625)"/>
       <path id="DejaVuSans-29" d="M 513 4856 
L 1013 4856 
Q 1481 4119 1714 3412 
Q 1947 2706 1947 2009 
Q 1947 1309 1714 600 
Q 1481 -109 1013 -844 
L 513 -844 
Q 928 -128 1133 580 
Q 1338 1288 1338 2009 
Q 1338 2731 1133 3434 
Q 928 4138 513 4856 
z
" transform="scale(0.015625)"/>
      </defs>
      <use xlink:href="#DejaVuSans-45" transform="translate(0 0.171875)"/>
      <use xlink:href="#DejaVuSans-78" transform="translate(63.183594 0.171875)"/>
      <use xlink:href="#DejaVuSans-63" transform="translate(122.363281 0.171875)"/>
      <use xlink:href="#DejaVuSans-69" transform="translate(177.34375 0.171875)"/>
      <use xlink:href="#DejaVuSans-74" transform="translate(205.126953 0.171875)"/>
      <use xlink:href="#DejaVuSans-6f" transform="translate(244.335938 0.171875)"/>
      <use xlink:href="#DejaVuSans-6e" transform="translate(305.517578 0.171875)"/>
      <use xlink:href="#DejaVuSans-20" transform="translate(368.896484 0.171875)"/>
      <use xlink:href="#DejaVuSans-43" transform="translate(400.683594 0.171875)"/>
      <use xlink:href="#DejaVuSans-65" transform="translate(470.507812 0.171875)"/>
      <use xlink:href="#DejaVuSans-6e" transform="translate(532.03125 0.171875)"/>
      <use xlink:href="#DejaVuSans-74" transform="translate(595.410156 0.171875)"/>
      <use xlink:href="#DejaVuSans-65" transform="translate(634.619141 0.171875)"/>
      <use xlink:href="#DejaVuSans-72" transform="translate(696.142578 0.171875)"/>
      <use xlink:href="#DejaVuSans-20" transform="translate(737.255859 0.171875)"/>
      <use xlink:href="#DejaVuSans-6f" transform="translate(769.042969 0.171875)"/>
      <use xlink:href="#DejaVuSans-66" transform="translate(830.224609 0.171875)"/>
      <use xlink:href="#DejaVuSans-20" transform="translate(865.429688 0.171875)"/>
      <use xlink:href="#DejaVuSans-4d" transform="translate(897.216797 0.171875)"/>
      <use xlink:href="#DejaVuSans-61" transform="translate(983.496094 0.171875)"/>
      <use xlink:href="#DejaVuSans-73" transform="translate(1044.775391 0.171875)"/>
      <use xlink:href="#DejaVuSans-73" transform="translate(1096.875 0.171875)"/>
      <use xlink:href="#DejaVuSans-20" transform="translate(1148.974609 0.171875)"/>
      <use xlink:href="#DejaVuSans-4d" transform="translate(1180.761719 0.171875)"/>
      <use xlink:href="#DejaVuSans-6f" transform="translate(1267.041016 0.171875)"/>
      <use xlink:href="#DejaVuSans-6d" transform="translate(1328.222656 0.171875)"/>
      <use xlink:href="#DejaVuSans-65" transform="translate(1425.634766 0.171875)"/>
      <use xlink:href="#DejaVuSans-6e" transform="translate(1487.158203 0.171875)"/>
      <use xlink:href="#DejaVuSans-74" transform="translate(1550.537109 0.171875)"/>
      <use xlink:href="#DejaVuSans-75" transform="translate(1589.746094 0.171875)"/>
      <use xlink:href="#DejaVuSans-6d" transform="translate(1653.125 0.171875)"/>
      <use xlink:href="#DejaVuSans-20" transform="translate(1750.537109 0.171875)"/>
      <use xlink:href="#DejaVuSans-28" transform="translate(1782.324219 0.171875)"/>
      <use xlink:href="#DejaVuSans-Oblique-c5" transform="translate(1821.337891 0.171875)"/>
      <use xlink:href="#DejaVuSans-2212" transform="translate(1899.551927 38.453125) scale(0.7)"/>
      <use xlink:href="#DejaVuSans-31" transform="translate(1958.204271 38.453125) scale(0.7)"/>
      <use xlink:href="#DejaVuSans-29" transform="translate(2005.474779 0.171875)"/>
     </g>
    </g>
   </g>
   <g id="matplotlib.axis_2">
    <g id="ytick_1">
     <g id="line2d_27">
      <defs>
       <path id="m94b8d717e3" d="M 0 0 
L -3.5 0 
" style="stroke: #000000; stroke-width: 0.8"/>
      </defs>
      <g>
       <use xlink:href="#m94b8d717e3" x="51.84" y="149.76" style="stroke: #000000; stroke-width: 0.8"/>
      </g>
     </g>
     <g id="text_8">
      <!-- 2.0 -->
      <g transform="translate(28.936875 153.559219) scale(0.1 -0.1)">
       <defs>
        <path id="DejaVuSans-32" d="M 1228 531 
L 3431 531 
L 3431 0 
L 469 0 
L 469 531 
Q 828 903 1448 1529 
Q 2069 2156 2228 2338 
Q 2531 2678 2651 2914 
Q 2772 3150 2772 3378 
Q 2772 3750 2511 3984 
Q 2250 4219 1831 4219 
Q 1534 4219 1204 4116 
Q 875 4013 500 3803 
L 500 4441 
Q 881 4594 1212 4672 
Q 1544 4750 1819 4750 
Q 2544 4750 2975 4387 
Q 3406 4025 3406 3419 
Q 3406 3131 3298 2873 
Q 3191 2616 2906 2266 
Q 2828 2175 2409 1742 
Q 1991 1309 1228 531 
z
" transform="scale(0.015625)"/>
       </defs>
       <use xlink:href="#DejaVuSans-32"/>
       <use xlink:href="#DejaVuSans-2e" x="63.623047"/>
       <use xlink:href="#DejaVuSans-30" x="95.410156"/>
      </g>
     </g>
    </g>
    <g id="ytick_2">
     <g id="line2d_28">
      <g>
       <use xlink:href="#m94b8d717e3" x="51.84" y="117" style="stroke: #000000; stroke-width: 0.8"/>
      </g>
     </g>
     <g id="text_9">
      <!-- 2.1 -->
      <g transform="translate(28.936875 120.799219) scale(0.1 -0.1)">
       <use xlink:href="#DejaVuSans-32"/>
       <use xlink:href="#DejaVuSans-2e" x="63.623047"/>
       <use xlink:href="#DejaVuSans-31" x="95.410156"/>
      </g>
     </g>
    </g>
    <g id="ytick_3">
     <g id="line2d_29">
      <g>
       <use xlink:href="#m94b8d717e3" x="51.84" y="84.24" style="stroke: #000000; stroke-width: 0.8"/>
      </g>
     </g>
     <g id="text_10">
      <!-- 2.2 -->
      <g transform="translate(28.936875 88.039219) scale(0.1 -0.1)">
       <use xlink:href="#DejaVuSans-32"/>
       <use xlink:href="#DejaVuSans-2e" x="63.623047"/>
       <use xlink:href="#DejaVuSans-32" x="95.410156"/>
      </g>
     </g>
    </g>
    <g id="ytick_4">
     <g id="line2d_30">
      <g>
       <use xlink:href="#m94b8d717e3" x="51.84" y="51.48" style="stroke: #000000; stroke-width: 0.8"/>
      </g>
     </g>
     <g id="text_11">
      <!-- 2.3 -->
      <g transform="translate(28.936875 55.279219) scale(0.1 -0.1)">
       <defs>
        <path id="DejaVuSans-33" d="M 2597 2516 
Q 3050 2419 3304 2112 
Q 3559 1806 3559 1356 
Q 3559 666 3084 287 
Q 2609 -91 1734 -91 
Q 1441 -91 1130 -33 
Q 819 25 488 141 
L 488 750 
Q 750 597 1062 519 
Q 1375 441 1716 441 
Q 2309 441 2620 675 
Q 2931 909 2931 1356 
Q 2931 1769 2642 2001 
Q 2353 2234 1838 2234 
L 1294 2234 
L 1294 2753 
L 1863 2753 
Q 2328 2753 2575 2939 
Q 2822 3125 2822 3475 
Q 2822 3834 2567 4026 
Q 2313 4219 1838 4219 
Q 1578 4219 1281 4162 
Q 984 4106 628 3988 
L 628 4550 
Q 988 4650 1302 4700 
Q 1616 4750 1894 4750 
Q 2613 4750 3031 4423 
Q 3450 4097 3450 3541 
Q 3450 3153 3228 2886 
Q 3006 2619 2597 2516 
z
" transform="scale(0.015625)"/>
       </defs>
       <use xlink:href="#DejaVuSans-32"/>
       <use xlink:href="#DejaVuSans-2e" x="63.623047"/>
       <use xlink:href="#DejaVuSans-33" x="95.410156"/>
      </g>
     </g>
    </g>
    <g id="ytick_5">
     <g id="line2d_31">
      <g>
       <use xlink:href="#m94b8d717e3" x="51.84" y="18.72" style="stroke: #000000; stroke-width: 0.8"/>
      </g>
     </g>
     <g id="text_12">
      <!-- 2.4 -->
      <g transform="translate(28.936875 22.519219) scale(0.1 -0.1)">
       <defs>
        <path id="DejaVuSans-34" d="M 2419 4116 
L 825 1625 
L 2419 1625 
L 2419 4116 
z
M 2253 4666 
L 3047 4666 
L 3047 1625 
L 3713 1625 
L 3713 1100 
L 3047 1100 
L 3047 0 
L 2419 0 
L 2419 1100 
L 313 1100 
L 313 1709 
L 2253 4666 
z
" transform="scale(0.015625)"/>
       </defs>
       <use xlink:href="#DejaVuSans-32"/>
       <use xlink:href="#DejaVuSans-2e" x="63.623047"/>
       <use xlink:href="#DejaVuSans-34" x="95.410156"/>
      </g>
     </g>
    </g>
    <g id="text_13">
     <!-- Excitation Energy (eV) -->
     <g transform="translate(22.857187 140.093906) rotate(-90) scale(0.1 -0.1)">
      <defs>
       <path id="DejaVuSans-67" d="M 2906 1791 
Q 2906 2416 2648 2759 
Q 2391 3103 1925 3103 
Q 1463 3103 1205 2759 
Q 947 2416 947 1791 
Q 947 1169 1205 825 
Q 1463 481 1925 481 
Q 2391 481 2648 825 
Q 2906 1169 2906 1791 
z
M 3481 434 
Q 3481 -459 3084 -895 
Q 2688 -1331 1869 -1331 
Q 1566 -1331 1297 -1286 
Q 1028 -1241 775 -1147 
L 775 -588 
Q 1028 -725 1275 -790 
Q 1522 -856 1778 -856 
Q 2344 -856 2625 -561 
Q 2906 -266 2906 331 
L 2906 616 
Q 2728 306 2450 153 
Q 2172 0 1784 0 
Q 1141 0 747 490 
Q 353 981 353 1791 
Q 353 2603 747 3093 
Q 1141 3584 1784 3584 
Q 2172 3584 2450 3431 
Q 2728 3278 2906 2969 
L 2906 3500 
L 3481 3500 
L 3481 434 
z
" transform="scale(0.015625)"/>
       <path id="DejaVuSans-79" d="M 2059 -325 
Q 1816 -950 1584 -1140 
Q 1353 -1331 966 -1331 
L 506 -1331 
L 506 -850 
L 844 -850 
Q 1081 -850 1212 -737 
Q 1344 -625 1503 -206 
L 1606 56 
L 191 3500 
L 800 3500 
L 1894 763 
L 2988 3500 
L 3597 3500 
L 2059 -325 
z
" transform="scale(0.015625)"/>
       <path id="DejaVuSans-56" d="M 1831 0 
L 50 4666 
L 709 4666 
L 2188 738 
L 3669 4666 
L 4325 4666 
L 2547 0 
L 1831 0 
z
" transform="scale(0.015625)"/>
      </defs>
      <use xlink:href="#DejaVuSans-45"/>
      <use xlink:href="#DejaVuSans-78" x="63.183594"/>
      <use xlink:href="#DejaVuSans-63" x="120.613281"/>
      <use xlink:href="#DejaVuSans-69" x="175.59375"/>
      <use xlink:href="#DejaVuSans-74" x="203.376953"/>
      <use xlink:href="#DejaVuSans-61" x="242.585938"/>
      <use xlink:href="#DejaVuSans-74" x="303.865234"/>
      <use xlink:href="#DejaVuSans-69" x="343.074219"/>
      <use xlink:href="#DejaVuSans-6f" x="370.857422"/>
      <use xlink:href="#DejaVuSans-6e" x="432.039062"/>
      <use xlink:href="#DejaVuSans-20" x="495.417969"/>
      <use xlink:href="#DejaVuSans-45" x="527.205078"/>
      <use xlink:href="#DejaVuSans-6e" x="590.388672"/>
      <use xlink:href="#DejaVuSans-65" x="653.767578"/>
      <use xlink:href="#DejaVuSans-72" x="715.291016"/>
      <use xlink:href="#DejaVuSans-67" x="754.654297"/>
      <use xlink:href="#DejaVuSans-79" x="818.130859"/>
      <use xlink:href="#DejaVuSans-20" x="877.310547"/>
      <use xlink:href="#DejaVuSans-28" x="909.097656"/>
      <use xlink:href="#DejaVuSans-65" x="948.111328"/>
      <use xlink:href="#DejaVuSans-56" x="1009.634766"/>
      <use xlink:href="#DejaVuSans-29" x="1078.042969"/>
     </g>
    </g>
   </g>
   <g id="line2d_32">
    <path d="M 59.652213 125.621613 
L 67.41916 128.481168 
L 72.079328 129.773026 
L 75.186107 130.452992 
L 79.06958 131.091124 
L 82.953053 131.488176 
L 86.059832 131.576038 
L 89.166611 131.607487 
L 89.943305 131.630059 
L 90.72 131.632745 
L 90.72 131.632745 
L 91.496695 131.630059 
L 92.273389 131.607487 
L 95.380168 131.576038 
L 98.486947 131.488176 
L 102.37042 131.091124 
L 106.253893 130.452992 
L 109.360672 129.773026 
L 114.02084 128.481168 
L 121.787787 125.621613 
" clip-path="url(#p21fd17f5a5)" style="fill: none; stroke: #ff0000; stroke-width: 1.5; stroke-linecap: square"/>
   </g>
   <g id="line2d_33">
    <path d="M 59.652213 104.616589 
L 67.41916 109.988344 
L 72.079328 113.255696 
L 75.186107 115.523965 
L 79.06958 118.564388 
L 82.953053 122.012575 
L 86.059832 125.268526 
L 89.166611 129.227408 
L 89.943305 130.365785 
L 90.72 131.576038 
L 90.72 131.576038 
L 91.496695 130.365785 
L 92.273389 129.227408 
L 95.380168 125.268526 
L 98.486947 122.012575 
L 102.37042 118.564388 
L 106.253893 115.523965 
L 109.360672 113.255696 
L 114.02084 109.988344 
L 121.787787 104.616589 
" clip-path="url(#p21fd17f5a5)" style="fill: none; stroke: #ff0000; stroke-width: 1.5; stroke-linecap: square"/>
   </g>
   <g id="line2d_34">
    <path d="M 59.652213 62.604346 
L 67.41916 64.362903 
L 72.079328 64.648832 
L 75.186107 64.503967 
L 79.06958 63.914058 
L 82.953053 62.854206 
L 86.059832 61.700792 
L 89.166611 60.412538 
L 89.943305 60.147313 
L 90.72 60.018403 
L 90.72 60.018403 
L 91.496695 60.147313 
L 92.273389 60.412538 
L 95.380168 61.700792 
L 98.486947 62.854206 
L 102.37042 63.914058 
L 106.253893 64.503967 
L 109.360672 64.648832 
L 114.02084 64.362903 
L 121.787787 62.604346 
" clip-path="url(#p21fd17f5a5)" style="fill: none; stroke: #ff0000; stroke-width: 1.5; stroke-linecap: square"/>
   </g>
   <g id="line2d_35">
    <path d="M 59.652213 61.496992 
L 67.41916 63.200447 
L 72.079328 63.386524 
L 75.186107 63.193109 
L 79.06958 62.588523 
L 82.953053 61.601595 
L 86.059832 60.627149 
L 89.166611 59.847494 
L 89.943305 59.854308 
L 90.72 60.018403 
L 90.72 60.018403 
L 91.496695 59.854308 
L 92.273389 59.847494 
L 95.380168 60.627149 
L 98.486947 61.601595 
L 102.37042 62.588523 
L 106.253893 63.193109 
L 109.360672 63.386524 
L 114.02084 63.200447 
L 121.787787 61.496992 
" clip-path="url(#p21fd17f5a5)" style="fill: none; stroke: #ff0000; stroke-width: 1.5; stroke-linecap: square"/>
   </g>
   <g id="line2d_36">
    <path d="M 59.652213 55.873149 
L 67.41916 57.203303 
L 72.079328 57.586366 
L 75.186107 57.66843 
L 79.06958 57.647398 
L 82.953053 57.708298 
L 86.059832 58.098339 
L 89.166611 58.861614 
L 89.943305 59.027118 
L 90.72 59.0643 
L 90.72 59.0643 
L 91.496695 59.027118 
L 92.273389 58.861614 
L 95.380168 58.098339 
L 98.486947 57.708298 
L 102.37042 57.647398 
L 106.253893 57.66843 
L 109.360672 57.586366 
L 114.02084 57.203303 
L 121.787787 55.873149 
" clip-path="url(#p21fd17f5a5)" style="fill: none; stroke: #ff0000; stroke-width: 1.5; stroke-linecap: square"/>
   </g>
   <g id="line2d_37">
    <path d="M 59.652213 55.011987 
L 67.41916 56.175556 
L 72.079328 56.49359 
L 75.186107 56.572214 
L 79.06958 56.578144 
L 82.953053 56.651887 
L 86.059832 57.075572 
L 89.166611 57.978699 
L 89.943305 58.105481 
L 90.72 58.102139 
L 90.72 58.102139 
L 91.496695 58.105481 
L 92.273389 57.978699 
L 95.380168 57.075572 
L 98.486947 56.651887 
L 102.37042 56.578144 
L 106.253893 56.572214 
L 109.360672 56.49359 
L 114.02084 56.175556 
L 121.787787 55.011987 
" clip-path="url(#p21fd17f5a5)" style="fill: none; stroke: #ff0000; stroke-width: 1.5; stroke-linecap: square"/>
   </g>
   <g id="line2d_38">
    <path d="M 59.652213 16.758036 
L 67.41916 23.325859 
L 72.079328 26.491098 
L 75.186107 28.396354 
L 79.06958 30.584886 
L 82.953053 32.39861 
L 86.059832 33.311107 
L 89.166611 33.593499 
L 89.943305 33.574432 
L 90.72 33.523228 
L 90.72 33.523228 
L 91.496695 33.574432 
L 92.273389 33.593499 
L 95.380168 33.311107 
L 98.486947 32.39861 
L 102.37042 30.584886 
L 106.253893 28.396354 
L 109.360672 26.491098 
L 114.02084 23.325859 
L 121.787787 16.758036 
" clip-path="url(#p21fd17f5a5)" style="fill: none; stroke: #ff0000; stroke-width: 1.5; stroke-linecap: square"/>
   </g>
   <g id="line2d_39">
    <path d="M 59.652213 13.094715 
L 67.41916 20.181751 
L 72.079328 23.852051 
L 75.186107 26.134079 
L 79.06958 28.906263 
L 82.953053 31.495712 
L 86.059832 33.030944 
L 89.166611 33.578003 
L 89.943305 33.571091 
L 90.72 33.523228 
L 90.72 33.523228 
L 91.496695 33.571091 
L 92.273389 33.578003 
L 95.380168 33.030944 
L 98.486947 31.495712 
L 102.37042 28.906263 
L 106.253893 26.134079 
L 109.360672 23.852051 
L 114.02084 20.181751 
L 121.787787 13.094715 
" clip-path="url(#p21fd17f5a5)" style="fill: none; stroke: #ff0000; stroke-width: 1.5; stroke-linecap: square"/>
   </g>
   <g id="line2d_40">
    <path d="M 59.652213 12.457533 
L 67.41916 16.483868 
L 72.079328 17.095563 
L 75.186107 16.927143 
L 79.06958 16.16436 
L 82.953053 14.921445 
L 86.059832 13.924329 
L 89.166611 13.20528 
L 89.943305 13.105165 
L 90.72 13.02451 
L 90.72 13.02451 
L 91.496695 13.105165 
L 92.273389 13.20528 
L 95.380168 13.924329 
L 98.486947 14.921445 
L 102.37042 16.16436 
L 106.253893 16.927143 
L 109.360672 17.095563 
L 114.02084 16.483868 
L 121.787787 12.457533 
" clip-path="url(#p21fd17f5a5)" style="fill: none; stroke: #ff0000; stroke-width: 1.5; stroke-linecap: square"/>
   </g>
   <g id="line2d_41">
    <path d="M 59.652213 8.893114 
L 67.41916 13.992306 
L 72.079328 15.510306 
L 75.186107 15.910896 
L 79.06958 15.75391 
L 82.953053 14.889897 
L 86.059832 13.829653 
L 89.166611 13.195157 
L 89.943305 13.10107 
L 90.72 13.02451 
L 90.72 13.02451 
L 91.496695 13.10107 
L 92.273389 13.195157 
L 95.380168 13.829653 
L 98.486947 14.889897 
L 102.37042 15.75391 
L 106.253893 15.910896 
L 109.360672 15.510306 
L 114.02084 13.992306 
L 121.787787 8.893114 
" clip-path="url(#p21fd17f5a5)" style="fill: none; stroke: #ff0000; stroke-width: 1.5; stroke-linecap: square"/>
   </g>
   <g id="line2d_42">
    <path d="M 59.652213 -0.355689 
L 67.41916 -0.171349 
L 72.079328 4.246763 
L 75.186107 6.67215 
L 79.06958 9.238208 
L 82.953053 11.082825 
L 86.059832 11.570654 
L 89.166611 11.183038 
L 89.943305 11.067395 
L 90.72 10.979434 
L 90.72 10.979434 
L 91.496695 11.067395 
L 92.273389 11.183038 
L 95.380168 11.570654 
L 98.486947 11.082825 
L 102.37042 9.238208 
L 106.253893 6.67215 
L 109.360672 4.246763 
L 114.02084 -0.171349 
L 121.787787 -0.355689 
" clip-path="url(#p21fd17f5a5)" style="fill: none; stroke: #ff0000; stroke-width: 1.5; stroke-linecap: square"/>
   </g>
   <g id="line2d_43">
    <path d="M 69.04114 -1 
L 72.079328 2.92529 
L 75.186107 6.174329 
L 79.06958 9.064154 
L 82.953053 10.704611 
L 86.059832 11.33167 
L 89.166611 11.164201 
L 89.943305 11.054619 
L 90.72 10.966625 
L 90.72 10.966625 
L 91.496695 11.054619 
L 92.273389 11.164201 
L 95.380168 11.33167 
L 98.486947 10.704611 
L 102.37042 9.064154 
L 106.253893 6.174329 
L 109.360672 2.92529 
L 112.39886 -1 
" clip-path="url(#p21fd17f5a5)" style="fill: none; stroke: #ff0000; stroke-width: 1.5; stroke-linecap: square"/>
   </g>
   <g id="line2d_44">
    <path d="M 80.964942 -1 
L 82.953053 0.875071 
L 86.059832 3.274348 
L 89.166611 4.772889 
L 89.943305 4.903273 
L 90.72 4.900194 
L 90.72 4.900194 
L 91.496695 4.903273 
L 92.273389 4.772889 
L 95.380168 3.274348 
L 98.486947 0.875071 
L 100.475058 -1 
" clip-path="url(#p21fd17f5a5)" style="fill: none; stroke: #ff0000; stroke-width: 1.5; stroke-linecap: square"/>
   </g>
   <g id="line2d_45">
    <path d="M 81.846231 -1 
L 82.953053 0.260068 
L 86.059832 3.073562 
L 89.166611 4.761652 
L 89.943305 4.901766 
L 90.72 4.900194 
L 90.72 4.900194 
L 91.496695 4.901766 
L 92.273389 4.761652 
L 95.380168 3.073562 
L 98.486947 0.260068 
L 99.593769 -1 
" clip-path="url(#p21fd17f5a5)" style="fill: none; stroke: #ff0000; stroke-width: 1.5; stroke-linecap: square"/>
   </g>
   <g id="line2d_46">
    <path clip-path="url(#p21fd17f5a5)" style="fill: none; stroke: #ff0000; stroke-width: 1.5; stroke-linecap: square"/>
   </g>
   <g id="line2d_47">
    <path clip-path="url(#p21fd17f5a5)" style="fill: none; stroke: #ff0000; stroke-width: 1.5; stroke-linecap: square"/>
   </g>
   <g id="line2d_48">
    <path clip-path="url(#p21fd17f5a5)" style="fill: none; stroke: #ff0000; stroke-width: 1.5; stroke-linecap: square"/>
   </g>
   <g id="line2d_49">
    <path clip-path="url(#p21fd17f5a5)" style="fill: none; stroke: #ff0000; stroke-width: 1.5; stroke-linecap: square"/>
   </g>
   <g id="line2d_50">
    <path clip-path="url(#p21fd17f5a5)" style="fill: none; stroke: #ff0000; stroke-width: 1.5; stroke-linecap: square"/>
   </g>
   <g id="line2d_51">
    <path clip-path="url(#p21fd17f5a5)" style="fill: none; stroke: #ff0000; stroke-width: 1.5; stroke-linecap: square"/>
   </g>
   <g id="line2d_52">
    <path d="M 156.852213 125.51416 
L 164.61916 128.261053 
L 172.386107 130.164573 
L 180.153053 131.170993 
L 183.259832 131.306751 
L 186.366611 131.299347 
L 189.473389 131.296366 
L 192.580168 131.294629 
L 195.686947 131.144425 
L 199.57042 130.731551 
L 203.453893 130.075204 
L 206.560672 129.373714 
L 211.22084 128.030849 
L 218.987787 125.04127 
" clip-path="url(#p21fd17f5a5)" style="fill: none; stroke: #ff0000; stroke-width: 1.5; stroke-linecap: square"/>
   </g>
   <g id="line2d_53">
    <path d="M 156.852213 62.537679 
L 164.61916 63.805229 
L 172.386107 63.776951 
L 180.153053 62.311557 
L 183.259832 61.3796 
L 186.366611 60.556119 
L 189.473389 60.564689 
L 192.580168 61.319558 
L 195.686947 62.132215 
L 199.57042 62.902757 
L 203.453893 63.313855 
L 206.560672 63.378878 
L 211.22084 63.051094 
L 218.987787 61.314788 
" clip-path="url(#p21fd17f5a5)" style="fill: none; stroke: #ff0000; stroke-width: 1.5; stroke-linecap: square"/>
   </g>
   <g id="line2d_54">
    <path d="M 156.852213 56.555887 
L 164.61916 57.448741 
L 172.386107 57.702906 
L 180.153053 57.478277 
L 183.259832 57.335051 
L 186.366611 57.209907 
L 189.473389 57.336125 
L 192.580168 57.743555 
L 195.686947 58.119797 
L 199.57042 58.486132 
L 203.453893 58.693516 
L 206.560672 58.715688 
L 211.22084 58.494047 
L 218.987787 57.53604 
" clip-path="url(#p21fd17f5a5)" style="fill: none; stroke: #ff0000; stroke-width: 1.5; stroke-linecap: square"/>
   </g>
   <g id="line2d_55">
    <path d="M 156.852213 15.73563 
L 164.61916 22.723731 
L 172.386107 28.43868 
L 180.153053 33.292664 
L 183.259832 34.869992 
L 186.366611 35.840802 
L 189.473389 35.672284 
L 192.580168 34.450566 
L 195.686947 32.790977 
L 199.57042 30.562052 
L 203.453893 28.319892 
L 206.560672 26.487822 
L 211.22084 23.469971 
L 218.987787 17.047962 
" clip-path="url(#p21fd17f5a5)" style="fill: none; stroke: #ff0000; stroke-width: 1.5; stroke-linecap: square"/>
   </g>
   <g id="line2d_56">
    <path d="M 156.852213 8.718765 
L 164.61916 13.86559 
L 172.386107 15.790109 
L 180.153053 14.676138 
L 183.259832 13.480333 
L 186.366611 12.297173 
L 189.473389 12.226018 
L 192.580168 13.263363 
L 195.686947 14.612224 
L 199.57042 15.983361 
L 203.453893 16.794957 
L 206.560672 16.990763 
L 211.22084 16.42241 
L 218.987787 12.722037 
" clip-path="url(#p21fd17f5a5)" style="fill: none; stroke: #ff0000; stroke-width: 1.5; stroke-linecap: square"/>
   </g>
   <g id="line2d_57">
    <path d="M 156.852213 -0.947106 
L 164.61916 -0.281128 
L 172.386107 6.591495 
L 180.153053 10.7719 
L 183.259832 11.621629 
L 186.366611 11.928623 
L 189.473389 12.008524 
L 192.580168 11.991718 
L 195.686947 11.231752 
L 199.57042 9.287708 
L 203.453893 6.227203 
L 206.560672 3.008238 
L 209.691632 -1 
" clip-path="url(#p21fd17f5a5)" style="fill: none; stroke: #ff0000; stroke-width: 1.5; stroke-linecap: square"/>
   </g>
   <g id="line2d_58">
    <path d="M 178.297279 -1 
L 180.153053 0.866848 
L 183.259832 3.257346 
L 186.366611 4.743208 
L 189.473389 4.731283 
L 192.580168 3.046044 
L 195.686947 0.224883 
L 196.759407 -1 
" clip-path="url(#p21fd17f5a5)" style="fill: none; stroke: #ff0000; stroke-width: 1.5; stroke-linecap: square"/>
   </g>
   <g id="line2d_59">
    <path clip-path="url(#p21fd17f5a5)" style="fill: none; stroke: #ff0000; stroke-width: 1.5; stroke-linecap: square"/>
   </g>
   <g id="line2d_60">
    <path clip-path="url(#p21fd17f5a5)" style="fill: none; stroke: #ff0000; stroke-width: 1.5; stroke-linecap: square"/>
   </g>
   <g id="line2d_61">
    <path clip-path="url(#p21fd17f5a5)" style="fill: none; stroke: #ff0000; stroke-width: 1.5; stroke-linecap: square"/>
   </g>
   <g id="line2d_62">
    <path d="M 156.852213 134.218689 
L 164.61916 136.856983 
L 172.386107 138.658095 
L 180.153053 139.643024 
L 183.259832 139.757881 
L 186.366611 139.747037 
L 189.473389 139.747332 
L 192.580168 139.757881 
L 195.686947 139.639322 
L 199.57042 139.220322 
L 203.453893 138.621109 
L 206.560672 137.976523 
L 211.22084 136.716115 
L 218.987787 133.87769 
" clip-path="url(#p21fd17f5a5)" style="fill: none; stroke: #0000ff; stroke-width: 1.5; stroke-linecap: square"/>
   </g>
   <g id="line2d_63">
    <path d="M 156.852213 62.744362 
L 164.61916 64.120885 
L 172.386107 64.279103 
L 180.153053 63.152106 
L 183.259832 62.441476 
L 186.366611 61.869251 
L 189.473389 61.866735 
L 192.580168 62.381827 
L 195.686947 62.986472 
L 199.57042 63.557387 
L 203.453893 63.821249 
L 206.560672 63.789118 
L 211.22084 63.339205 
L 218.987787 61.465019 
" clip-path="url(#p21fd17f5a5)" style="fill: none; stroke: #0000ff; stroke-width: 1.5; stroke-linecap: square"/>
   </g>
   <g id="line2d_64">
    <path d="M 156.852213 56.699094 
L 164.61916 57.666169 
L 172.386107 58.000531 
L 180.153053 57.863568 
L 183.259832 57.782795 
L 186.366611 57.829759 
L 189.473389 57.874628 
L 192.580168 58.164042 
L 195.686947 58.503593 
L 199.57042 58.835675 
L 203.453893 59.014833 
L 206.560672 59.014623 
L 211.22084 58.755714 
L 218.987787 57.72629 
" clip-path="url(#p21fd17f5a5)" style="fill: none; stroke: #0000ff; stroke-width: 1.5; stroke-linecap: square"/>
   </g>
   <g id="line2d_65">
    <path d="M 156.852213 21.00727 
L 164.61916 27.580597 
L 172.386107 32.994646 
L 180.153053 37.422422 
L 183.259832 38.67405 
L 186.366611 39.15061 
L 189.473389 39.100291 
L 192.580168 38.292364 
L 195.686947 36.896919 
L 199.57042 34.846732 
L 203.453893 32.703115 
L 206.560672 30.915663 
L 211.22084 27.968148 
L 218.987787 21.820046 
" clip-path="url(#p21fd17f5a5)" style="fill: none; stroke: #0000ff; stroke-width: 1.5; stroke-linecap: square"/>
   </g>
   <g id="line2d_66">
    <path clip-path="url(#p21fd17f5a5)" style="fill: none; stroke: #0000ff; stroke-width: 1.5; stroke-linecap: square"/>
   </g>
   <g id="line2d_67">
    <path clip-path="url(#p21fd17f5a5)" style="fill: none; stroke: #0000ff; stroke-width: 1.5; stroke-linecap: square"/>
   </g>
   <g id="line2d_68">
    <path clip-path="url(#p21fd17f5a5)" style="fill: none; stroke: #0000ff; stroke-width: 1.5; stroke-linecap: square"/>
   </g>
   <g id="line2d_69">
    <path clip-path="url(#p21fd17f5a5)" style="fill: none; stroke: #0000ff; stroke-width: 1.5; stroke-linecap: square"/>
   </g>
   <g id="line2d_70">
    <path clip-path="url(#p21fd17f5a5)" style="fill: none; stroke: #0000ff; stroke-width: 1.5; stroke-linecap: square"/>
   </g>
   <g id="line2d_71">
    <path clip-path="url(#p21fd17f5a5)" style="fill: none; stroke: #0000ff; stroke-width: 1.5; stroke-linecap: square"/>
   </g>
   <g id="line2d_72">
    <path d="M 149.04 149.76 
L 149.04 18.72 
" clip-path="url(#p21fd17f5a5)" style="fill: none; stroke: #000000; stroke-linecap: square"/>
   </g>
   <g id="patch_3">
    <path d="M 51.84 149.76 
L 51.84 18.72 
" style="fill: none; stroke: #000000; stroke-width: 0.8; stroke-linejoin: miter; stroke-linecap: square"/>
   </g>
   <g id="patch_4">
    <path d="M 246.24 149.76 
L 246.24 18.72 
" style="fill: none; stroke: #000000; stroke-width: 0.8; stroke-linejoin: miter; stroke-linecap: square"/>
   </g>
   <g id="patch_5">
    <path d="M 51.84 149.76 
L 246.24 149.76 
" style="fill: none; stroke: #000000; stroke-width: 0.8; stroke-linejoin: miter; stroke-linecap: square"/>
   </g>
   <g id="patch_6">
    <path d="M 51.84 18.72 
L 246.24 18.72 
" style="fill: none; stroke: #000000; stroke-width: 0.8; stroke-linejoin: miter; stroke-linecap: square"/>
   </g>
   <g id="text_14">
    <g id="patch_7">
     <path d="M 121.712 135.632745 
L 145.112 135.632745 
L 145.112 117.95462 
L 121.712 117.95462 
z
" style="fill: #ffffff; opacity: 0.5; stroke: #000000; stroke-width: 0.5; stroke-linejoin: miter"/>
    </g>
    <!-- A$_\mathrm{1s}$ -->
    <g transform="translate(125.712 129.553058) scale(0.1 -0.1)">
     <defs>
      <path id="DejaVuSans-41" d="M 2188 4044 
L 1331 1722 
L 3047 1722 
L 2188 4044 
z
M 1831 4666 
L 2547 4666 
L 4325 0 
L 3669 0 
L 3244 1197 
L 1141 1197 
L 716 0 
L 50 0 
L 1831 4666 
z
" transform="scale(0.015625)"/>
     </defs>
     <use xlink:href="#DejaVuSans-41" transform="translate(0 0.09375)"/>
     <use xlink:href="#DejaVuSans-31" transform="translate(69.365234 -16.3125) scale(0.7)"/>
     <use xlink:href="#DejaVuSans-73" transform="translate(113.901367 -16.3125) scale(0.7)"/>
    </g>
   </g>
   <g id="text_15">
    <g id="patch_8">
     <path d="M 121.712 69.218403 
L 145.912 69.218403 
L 145.912 50.818403 
L 121.712 50.818403 
z
" style="fill: #ffffff; opacity: 0.5; stroke: #000000; stroke-width: 0.5; stroke-linejoin: miter"/>
    </g>
    <!-- A$_\mathrm{2p}$ -->
    <g transform="translate(125.712 62.118403) scale(0.1 -0.1)">
     <defs>
      <path id="DejaVuSans-70" d="M 1159 525 
L 1159 -1331 
L 581 -1331 
L 581 3500 
L 1159 3500 
L 1159 2969 
Q 1341 3281 1617 3432 
Q 1894 3584 2278 3584 
Q 2916 3584 3314 3078 
Q 3713 2572 3713 1747 
Q 3713 922 3314 415 
Q 2916 -91 2278 -91 
Q 1894 -91 1617 61 
Q 1341 213 1159 525 
z
M 3116 1747 
Q 3116 2381 2855 2742 
Q 2594 3103 2138 3103 
Q 1681 3103 1420 2742 
Q 1159 2381 1159 1747 
Q 1159 1113 1420 752 
Q 1681 391 2138 391 
Q 2594 391 2855 752 
Q 3116 1113 3116 1747 
z
" transform="scale(0.015625)"/>
     </defs>
     <use xlink:href="#DejaVuSans-41" transform="translate(0 0.09375)"/>
     <use xlink:href="#DejaVuSans-32" transform="translate(69.365234 -16.3125) scale(0.7)"/>
     <use xlink:href="#DejaVuSans-70" transform="translate(113.901367 -16.3125) scale(0.7)"/>
    </g>
   </g>
   <g id="text_16">
    <g id="patch_9">
     <path d="M 121.712 38.846226 
L 145.112 38.846226 
L 145.112 21.168101 
L 121.712 21.168101 
z
" style="fill: #ffffff; opacity: 0.5; stroke: #000000; stroke-width: 0.5; stroke-linejoin: miter"/>
    </g>
    <!-- A$_\mathrm{2s}$ -->
    <g transform="translate(125.712 32.766538) scale(0.1 -0.1)">
     <use xlink:href="#DejaVuSans-41" transform="translate(0 0.09375)"/>
     <use xlink:href="#DejaVuSans-32" transform="translate(69.365234 -16.3125) scale(0.7)"/>
     <use xlink:href="#DejaVuSans-73" transform="translate(113.901367 -16.3125) scale(0.7)"/>
    </g>
   </g>
   <g id="text_17">
    <g id="patch_10">
     <path d="M 220.888 135.296366 
L 240.488 135.296366 
L 240.488 117.618241 
L 220.888 117.618241 
z
" style="fill: #ffffff; opacity: 0.5; stroke: #000000; stroke-width: 0.5; stroke-linejoin: miter"/>
    </g>
    <!-- $\mathrm{1s}$ -->
    <g transform="translate(224.888 129.216678) scale(0.1 -0.1)">
     <use xlink:href="#DejaVuSans-31" transform="translate(0 0.09375)"/>
     <use xlink:href="#DejaVuSans-73" transform="translate(63.623047 0.09375)"/>
    </g>
   </g>
   <g id="text_18">
    <g id="patch_11">
     <path d="M 220.288 64.564689 
L 241.088 64.564689 
L 241.088 46.886564 
L 220.288 46.886564 
z
" style="fill: #ffffff; opacity: 0.5; stroke: #000000; stroke-width: 0.5; stroke-linejoin: miter"/>
    </g>
    <!-- $\mathrm{2p}$ -->
    <g transform="translate(224.288 58.464689) scale(0.1 -0.1)">
     <use xlink:href="#DejaVuSans-32" transform="translate(0 0.78125)"/>
     <use xlink:href="#DejaVuSans-70" transform="translate(63.623047 0.78125)"/>
    </g>
   </g>
   <g id="text_19">
    <g id="patch_12">
     <path d="M 220.888 41.292001 
L 240.488 41.292001 
L 240.488 23.613876 
L 220.888 23.613876 
z
" style="fill: #ffffff; opacity: 0.5; stroke: #000000; stroke-width: 0.5; stroke-linejoin: miter"/>
    </g>
    <!-- $\mathrm{2s}$ -->
    <g transform="translate(224.888 35.212314) scale(0.1 -0.1)">
     <use xlink:href="#DejaVuSans-32" transform="translate(0 0.78125)"/>
     <use xlink:href="#DejaVuSans-73" transform="translate(63.623047 0.78125)"/>
    </g>
   </g>
  </g>
 </g>
 <defs>
  <clipPath id="p21fd17f5a5">
   <rect x="51.84" y="18.72" width="194.4" height="131.04"/>
  </clipPath>
 </defs>
</svg>
